<svg width="34" height="39" viewBox="0 0 34 39" fill="none" xmlns="http://www.w3.org/2000/svg">
<g clip-path="url(#clip0_165_513)">
<path d="M17.4297 11.9664C14.6052 11.9664 12.1525 13.487 10.8257 15.7332L16.0225 18.695C16.897 19.1919 17.9624 19.1919 18.8369 18.695L24.0236 15.7332C22.7169 13.4771 20.2542 11.9664 17.4297 11.9664Z" fill="#E1BEE7"/>
<path d="M16.0225 18.6949L10.8257 15.7332C10.1724 16.8463 9.80045 18.1284 9.80045 19.5C9.80045 23.6643 13.208 27.0336 17.4197 27.0336C21.6313 27.0336 25.0389 23.6643 25.0389 19.5C25.0389 18.1284 24.667 16.8364 24.0136 15.7332L18.8269 18.6949C17.9725 19.1919 16.897 19.1919 16.0225 18.6949Z" fill="#FAFAFA"/>
<path d="M33.5427 28.7034L24.0337 23.2668C22.7169 25.523 20.2543 27.0337 17.4297 27.0337V38.9901C17.882 38.9901 18.3243 38.8708 18.7264 38.6422L33.5527 30.1743C33.5527 30.1743 33.5628 30.1743 33.5628 30.1644C34.1357 29.8464 34.1156 29.0214 33.5427 28.7034Z" fill="#7B1FA2"/>
<path d="M17.4297 27.0337C14.6052 27.0337 12.1425 25.523 10.8257 23.2668L0.351807 29.25C0.572945 29.6376 0.904652 29.9557 1.29667 30.1843L16.123 38.6522C16.5251 38.8808 16.9673 39 17.4197 39V27.0337H17.4297Z" fill="#4A148C"/>
<path d="M17.4297 11.9664V0.00994873C16.9774 0.00994873 16.5351 0.129215 16.1331 0.357808L1.30674 8.8257C0.904671 9.05429 0.583016 9.38227 0.361877 9.75995L10.8358 15.7431C12.1526 13.4771 14.6152 11.9664 17.4297 11.9664Z" fill="#7B1FA2"/>
<path d="M33.5628 8.82569C33.5628 8.82569 33.5527 8.82569 33.5527 8.81575L18.7264 0.347859C18.3243 0.119266 17.882 0 17.4297 0V11.9564C20.2543 11.9564 22.7169 13.4671 24.0337 15.7232L33.5427 10.2966C34.1156 9.97859 34.1357 9.15367 33.5628 8.82569Z" fill="#4A148C"/>
<path d="M9.8105 19.5C9.8105 18.1284 10.1824 16.8364 10.8257 15.7332L0.351811 9.75C0.130673 10.1376 0 10.5749 0 11.0321V27.958C0 28.4151 0.120621 28.8524 0.351811 29.2401L10.8257 23.2569C10.1824 22.1636 9.8105 20.8716 9.8105 19.5Z" fill="#BA68C8"/>
<path d="M24.0337 23.2668C22.7169 25.523 20.2543 27.0337 17.4398 27.0337C16.314 27.0337 15.2384 26.7852 14.2735 26.3578L27.2704 33.7821L33.5627 30.1942C34.1458 29.8662 34.1458 29.0314 33.5627 28.7034L24.0337 23.2668Z" fill="url(#paint0_linear_165_513)"/>
</g>
<defs>
<linearGradient id="paint0_linear_165_513" x1="30.1055" y1="33.6364" x2="18.6337" y2="22.0344" gradientUnits="userSpaceOnUse">
<stop stop-color="#1A237E" stop-opacity="0.01"/>
<stop offset="1" stop-color="#1A237E" stop-opacity="0.3"/>
</linearGradient>
<clipPath id="clip0_165_513">
<rect width="34" height="39" fill="white"/>
</clipPath>
</defs>
</svg>
