<svg width="43" height="43" viewBox="0 0 43 43" fill="none" xmlns="http://www.w3.org/2000/svg">
<path d="M25.7341 2.98132C24.4727 2.58286 23.1311 2.36499 21.7379 2.36499C17.673 2.36499 14.0352 4.20252 11.61 7.08926L17.8593 12.3467L25.7341 2.98132Z" fill="#1A73E8"/>
<path d="M11.6071 7.08923C9.675 9.3883 8.50827 12.3553 8.50827 15.5918C8.50827 18.08 9.0042 20.0953 9.81834 21.9013L17.8565 12.3467L11.6071 7.08923Z" fill="#EA4335"/>
<path d="M21.7379 10.535C24.5329 10.535 26.7976 12.7997 26.7976 15.5947C26.7976 16.8388 26.3475 17.9797 25.6022 18.8598C25.6022 18.8598 29.5983 14.1069 33.4769 9.49726C31.8745 6.41559 29.0967 4.04486 25.7369 2.98132L17.8565 12.3467C18.7853 11.2373 20.1785 10.535 21.7379 10.535Z" fill="#4285F4"/>
<path d="M21.7379 20.6515C18.9429 20.6515 16.6783 18.3868 16.6783 15.5918C16.6783 14.3563 17.1226 13.2239 17.8565 12.3439L9.81833 21.9013C11.1915 24.9486 13.4762 27.3939 15.8297 30.4755L25.5993 18.8598C24.6734 19.9549 23.2859 20.6515 21.7379 20.6515Z" fill="#FBBC04"/>
<path d="M25.4073 33.6461C29.8191 26.746 34.9647 23.6128 34.9647 15.5918C34.9647 13.3931 34.4258 11.3205 33.4769 9.49731L15.8326 30.4756C16.5808 31.456 17.3347 32.4994 18.0715 33.649C20.7547 37.7942 20.0093 40.2796 21.7408 40.2796C23.4665 40.2796 22.7241 37.7913 25.4073 33.6461Z" fill="#34A853"/>
</svg>
